<?xml version="1.0" encoding="iso-8859-1"?>
<!-- Generator: Adobe Illustrator 19.0.0, SVG Export Plug-In . SVG Version: 6.00 Build 0)  -->
<svg version="1.1" id="Capa_1" xmlns="http://www.w3.org/2000/svg" xmlns:xlink="http://www.w3.org/1999/xlink" x="0px" y="0px"
	 viewBox="0 0 480 480" style="enable-background:new 0 0 480 480;" xml:space="preserve">
<g>
	<g>
		<path d="M472,240h-8v-24c0-4.418-3.582-8-8-8v-24h-16v24h-36.256l-37.6-45.12c-1.519-1.824-3.77-2.879-6.144-2.88H88
			c-3.032-0.001-5.805,1.712-7.16,4.424L59.056,208H24c-4.418,0-8,3.582-8,8v24H8c-4.418,0-8,3.582-8,8v32c0,4.418,3.582,8,8,8h40
			c0,17.673,14.327,32,32,32s32-14.327,32-32h264c0,17.673,14.327,32,32,32c17.673,0,32-14.327,32-32h32c4.418,0,8-3.582,8-8v-32
			C480,243.582,476.418,240,472,240z M320,176h36.256l26.664,32H320V176z M52.448,272H16v-16h56v1.136
			C63.765,259.293,56.729,264.642,52.448,272z M80,304c-8.837,0-16-7.163-16-16s7.163-16,16-16s16,7.163,16,16S88.837,304,80,304z
			 M136,240h-24v16h24v16h-28.448c-4.281-7.358-11.317-12.707-19.552-14.864V248c0-4.418-3.582-8-8-8H32v-16h104V240z M136,208
			H76.944l16-32H136V208z M216,272h-64v-16h64V272z M216,240h-64v-16h64V240z M216,208h-64v-32h64V208z M304,272h-72v-16h72V272z
			 M304,240h-72v-16h72V240z M304,208h-72v-32h72V208z M380.448,272H320v-16h38.856v-16H320v-16h128v16h-40c-4.418,0-8,3.582-8,8
			v9.136C391.765,259.293,384.729,264.642,380.448,272z M408,304c-8.837,0-16-7.163-16-16s7.163-16,16-16s16,7.163,16,16
			S416.837,304,408,304z M464,272h-28.448c-4.281-7.358-11.317-12.707-19.552-14.864V256h48V272z"/>
	</g>
</g>
<g>
</g>
<g>
</g>
<g>
</g>
<g>
</g>
<g>
</g>
<g>
</g>
<g>
</g>
<g>
</g>
<g>
</g>
<g>
</g>
<g>
</g>
<g>
</g>
<g>
</g>
<g>
</g>
<g>
</g>
</svg>
