<svg id="outline" height="512" viewBox="0 0 512 512" width="512" xmlns="http://www.w3.org/2000/svg"><path d="m48.54993 335.28882a48.076 48.076 0 0 0 47.44665 40.70581h32a48.07 48.07 0 0 0 47.34632-40.14356l73.25946-.26757a48.07226 48.07226 0 0 0 47.39422 40.41113h32a47.88832 47.88832 0 0 0 35.99634-16.29736 48.32638 48.32638 0 0 0 36.00366 16.29736h32a48.06719 48.06719 0 0 0 47.511-41.21045 24.038 24.038 0 0 0 16.489-22.78955v-64a56.06353 56.06353 0 0 0 -56-56h-52.99414l-41.37844-36.20606a79.97887 79.97887 0 0 0 -52.68066-19.79394h-193.06443a55.63355 55.63355 0 0 0 -39.59815 16.40185l-34.91162 34.91163a31.78928 31.78928 0 0 0 -9.37256 22.62744v86.05908a40.05922 40.05922 0 0 0 32.55335 39.29419zm.31952-16.37451a24.10851 24.10851 0 0 1 -15.53894-15.04431 7.98838 7.98838 0 0 0 4.91314-2.87781l12.00977-15.01219a58.57975 58.57975 0 0 1 91.48633 0l12.00976 15.01221a7.99952 7.99952 0 0 0 6.24707 3.00244h16v15.85376l-32.6842.11938a47.99135 47.99135 0 0 0 -94.44293-1.05346zm15.12713 9.08032a32 32 0 1 1 32 32 32.036 32.036 0 0 1 -32-32zm67.95832 31.74637a47.8461 47.8461 0 0 0 11.3671-23.773l15.68207-.05738a32.07723 32.07723 0 0 1 -27.04917 23.83038zm132.04168-31.74634a32 32 0 1 1 32 32 32.036 32.036 0 0 1 -32-32.00003zm67.95825 31.74634a47.84613 47.84613 0 0 0 11.36231-23.74634h15.66686a32.07881 32.07881 0 0 1 -27.02917 23.74634zm40.9292-14.76514a47.56989 47.56989 0 0 0 2.43311-8.9812h55.66686a31.99507 31.99507 0 0 1 -58.1 8.9812zm63.0708 14.76514a47.84613 47.84613 0 0 0 11.36231-23.74634h15.66686a32.07881 32.07881 0 0 1 -27.02917 23.74634zm36.04175-39.74634h-128.67944a47.989 47.989 0 0 0 -94.56738-.41187l-56.75318.20728v-15.79544h40a7.99949 7.99949 0 0 0 6.24707-3.00244l12.00977-15.01219a58.57975 58.57975 0 0 1 91.48633 0l12.00976 15.01221a7.99952 7.99952 0 0 0 6.24707 3.00244h120v8a8.00917 8.00917 0 0 1 -8 7.99998zm-88-64a16.01834 16.01834 0 0 1 -16-16h24v16zm24-16h71.19507a40.02741 40.02741 0 0 1 .80493 8v8h-72zm32-32a39.96212 39.96212 0 0 1 31.97815 16h-111.97815a7.99977 7.99977 0 0 0 -8 8v8a32.036 32.036 0 0 0 32 32h96v16h-116.15478l-9.60791-12.00977a74.58025 74.58025 0 0 0 -116.47461 0l-9.60791 12.00977h-36.15479v-16a7.99877 7.99877 0 0 0 -2.34326-5.65674l-21.65674-21.65723v-36.686h272zm-147.05322-56a63.98108 63.98108 0 0 1 42.14453 15.835l27.61719 24.165h-71.70264l-41.37844-36.20609c-1.52313-1.33276-3.101-2.58764-4.71-3.79394zm-96 0a63.98108 63.98108 0 0 1 42.14453 15.835l27.61719 24.165h-98.7085v-40zm-44.94678 40h-64.45458l28.57141-40h35.88318zm-115.314 6.62744 34.91162-34.91162a39.69445 39.69445 0 0 1 24.74115-11.55371l-30.84857 43.188a8 8 0 0 0 6.50976 12.6499h80v40a7.99881 7.99881 0 0 0 2.34326 5.65674l21.65674 21.65722v12.686h-12.15474l-9.60791-12.00977a74.58025 74.58025 0 0 0 -116.47461 0l-5.7627 7.20337v-27.1936h8a7.99944 7.99944 0 0 0 6.65625-3.5625l16-24a8 8 0 0 0 -6.65625-12.4375h-24v-6.05908a15.89423 15.89423 0 0 1 4.68604-11.31348zm-4.686 41.37256v-8h9.05176l-5.333 8z"/><circle cx="95.997" cy="327.995" r="8"/><path d="m191.997 231.995h24v16h-24z"/><circle cx="295.997" cy="327.995" r="8"/></svg>